<?xml version="1.0" encoding="UTF-8" standalone="no"?>
<!-- Created with Inkscape (http://www.inkscape.org/) -->

<svg
   width="64.18911mm"
   height="88.387527mm"
   viewBox="0 0 64.18911 88.387527"
   version="1.1"
   id="svg3719"
   inkscape:version="1.1 (c68e22c387, 2021-05-23)"
   sodipodi:docname="modify_rain.svg"
   xmlns:inkscape="http://www.inkscape.org/namespaces/inkscape"
   xmlns:sodipodi="http://sodipodi.sourceforge.net/DTD/sodipodi-0.dtd"
   xmlns="http://www.w3.org/2000/svg"
   xmlns:svg="http://www.w3.org/2000/svg"
   xmlns:rdf="http://www.w3.org/1999/02/22-rdf-syntax-ns#"
   xmlns:cc="http://creativecommons.org/ns#"
   xmlns:dc="http://purl.org/dc/elements/1.1/">
  <defs
     id="defs3713" />
  <sodipodi:namedview
     id="base"
     pagecolor="#ffffff"
     bordercolor="#666666"
     borderopacity="1.0"
     inkscape:pageopacity="0.0"
     inkscape:pageshadow="2"
     inkscape:zoom="0.49497475"
     inkscape:cx="-304.05591"
     inkscape:cy="-48.487322"
     inkscape:document-units="mm"
     inkscape:current-layer="g4623"
     showgrid="false"
     inkscape:pagecheckerboard="true"
     fit-margin-top="3"
     fit-margin-left="3"
     fit-margin-right="3"
     fit-margin-bottom="3"
     inkscape:window-width="1920"
     inkscape:window-height="1017"
     inkscape:window-x="-8"
     inkscape:window-y="-8"
     inkscape:window-maximized="1" />
  <metadata
     id="metadata3716">
    <rdf:RDF>
      <cc:Work
         rdf:about="">
        <dc:format>image/svg+xml</dc:format>
        <dc:type
           rdf:resource="http://purl.org/dc/dcmitype/StillImage" />
        <dc:title />
      </cc:Work>
    </rdf:RDF>
  </metadata>
  <g
     inkscape:label="レイヤー 1"
     inkscape:groupmode="layer"
     id="layer1"
     transform="translate(-48.166179,-136.93459)">
    <g
       transform="matrix(1.1111111,0,0,1.1111111,-2364.4892,-3318.68)"
       id="g4623">
      <path
         sodipodi:nodetypes="cccccc"
         inkscape:connector-curvature="0"
         id="rect3033-2-4-9-8-0-31"
         d="m 2177.3749,3116.3973 v 42.6457 l 22.9004,23.5101 22.8998,-23.5101 v -42.6457 z"
         style="opacity:1;vector-effect:none;fill:#fe9f0f;fill-opacity:1;stroke:#000000;stroke-width:3.25349998;stroke-linecap:round;stroke-linejoin:miter;stroke-miterlimit:4;stroke-dasharray:none;stroke-dashoffset:0;stroke-opacity:1;paint-order:stroke fill markers" />
      <path
         inkscape:connector-curvature="0"
         id="rect1399-0-4-3-2-1-1-7"
         d="m 2200.0335,3125.9316 -0.2201,0.2197 v 3.8014 c -2.967,0.1502 -5.8582,1.0018 -8.4353,2.4896 -5.3107,3.0661 -8.6119,8.5438 -9.1625,14.5809 -0.1458,0.5393 -0.2227,1.1013 -0.2227,1.6747 h 0.4942 c 0,-0.5294 0.07,-1.0479 0.2049,-1.5458 0.4036,-1.4934 1.3821,-2.7929 2.7578,-3.5871 1.8343,-1.0591 4.094,-1.0591 5.9283,0 1.8344,1.059 2.9631,3.0149 2.9631,5.1329 h 0.4942 c 0,-2.118 1.1296,-4.0739 2.964,-5.1329 0.6325,-0.3652 1.3156,-0.6013 2.0141,-0.7145 v 11.4646 a 1.5039701,1.5039701 0 0 0 -0.5481,1.18 v 6.4263 c -0.2391,0.5877 -0.6445,0.8786 -1.2459,0.9952 -0.6431,0.1246 -1.4029,-0.073 -1.7944,-0.391 -0.7472,-0.6633 -1.4178,-1.5774 -0.8268,-3.4176 a 1.5039701,1.5039701 0 1 0 -2.8638,-0.9188 c -0.945,2.9426 0.3154,5.3766 1.7142,6.6097 l 0.015,0.014 0.014,0.013 c 1.2088,1.0109 2.7992,1.3386 4.3134,1.0452 1.514,-0.2933 3.0341,-1.3704 3.6074,-3.1311 l 0.073,-0.2269 v -7.0168 a 1.5039701,1.5039701 0 0 0 -0.5838,-1.2081 v -11.4404 c 0.7066,0.1118 1.3979,0.3493 2.0371,0.7184 1.8345,1.0591 2.9645,3.0149 2.9645,5.1329 h 0.4941 c 0,-2.1179 1.1285,-4.0738 2.9628,-5.1329 1.8342,-1.0591 4.0939,-1.0591 5.9282,0 1.6974,0.9827 2.7981,2.7412 2.9415,4.6973 l 0.4938,-0.024 c -1e-4,-0.01 0,-0.01 0,-0.012 0,-0.01 0,-0.01 0,-0.013 -0.1654,-6.5259 -3.7074,-12.5005 -9.3584,-15.7712 v 0 c -2.5873,-1.4937 -5.4876,-2.344 -8.4584,-2.4908 v -3.8002 l -0.2185,-0.2198 z"
         style="color:#000000;font-style:normal;font-variant:normal;font-weight:normal;font-stretch:normal;font-size:medium;line-height:normal;font-family:sans-serif;font-variant-ligatures:normal;font-variant-position:normal;font-variant-caps:normal;font-variant-numeric:normal;font-variant-alternates:normal;font-feature-settings:normal;text-indent:0;text-align:start;text-decoration:none;text-decoration-line:none;text-decoration-style:solid;text-decoration-color:#000000;letter-spacing:normal;word-spacing:normal;text-transform:none;writing-mode:lr-tb;direction:ltr;text-orientation:mixed;dominant-baseline:auto;baseline-shift:baseline;text-anchor:start;white-space:normal;shape-padding:0;clip-rule:nonzero;display:inline;overflow:visible;visibility:visible;isolation:auto;mix-blend-mode:normal;color-interpolation:sRGB;color-interpolation-filters:linearRGB;solid-color:#000000;solid-opacity:1;vector-effect:none;fill:#000000;fill-opacity:1;fill-rule:nonzero;stroke:none;stroke-width:0.438419;stroke-linecap:round;stroke-linejoin:bevel;stroke-miterlimit:4;stroke-dasharray:none;stroke-dashoffset:0;stroke-opacity:1;paint-order:normal;color-rendering:auto;image-rendering:auto;shape-rendering:auto;text-rendering:auto;enable-background:accumulate" />
    </g>
  </g>
</svg>
